<svg version="1.1" viewBox="0.0 0.0 197.79790026246718 100.0" fill="none" stroke="none" stroke-linecap="square" stroke-miterlimit="10" xmlns:xlink="http://www.w3.org/1999/xlink" xmlns="http://www.w3.org/2000/svg"><clipPath id="p.0"><path d="m0 0l197.7979 0l0 100.0l-197.7979 0l0 -100.0z" clip-rule="nonzero"/></clipPath><g clip-path="url(#p.0)"><path fill="#000000" fill-opacity="0.0" d="m0 0l197.7979 0l0 100.0l-197.7979 0z" fill-rule="evenodd"/><path fill="#000000" fill-opacity="0.0" d="m0 15.417323l197.73228 0l0 69.16536l-197.73228 0z" fill-rule="evenodd"/><path fill="#8f1822" d="m18.911171 42.337322l-4.390625 -11.671877l-0.078125 0q0.140625 1.4531269 0.140625 3.593752l0 8.078125l-1.546875 0l0 -13.312502l2.484375 0l4.109375 10.906252l0.0625 0l4.1875 -10.906252l2.453125 0l0 13.312502l-1.65625 0l0 -8.1875q0 -1.375 0.125 -3.468752l-0.0625 0l-4.453125 11.656252l-1.375 0zm19.519196 -5.015625q0 2.453125 -1.25 3.828125q-1.234375 1.375 -3.421875 1.375q-1.359375 0 -2.40625 -0.625q-1.046875 -0.640625 -1.609375 -1.828125q-0.5625 -1.1875 -0.5625 -2.75q0 -2.4375 1.21875 -3.796875q1.21875 -1.375 3.421875 -1.375q2.109375 0 3.359375 1.390625q1.25 1.390625 1.25 3.78125zm-7.5625 0q0 1.875 0.734375 2.859375q0.75 0.984375 2.203125 0.984375q1.4375 0 2.171875 -0.984375q0.75 -0.984375 0.75 -2.859375q0 -1.890625 -0.75 -2.84375q-0.75 -0.953125 -2.203125 -0.953125q-2.90625 0 -2.90625 3.796875zm11.786667 5.015625l-1.640625 0l0 -14.171877l1.640625 0l0 14.171877zm7.4348145 0.1875q-2.25 0 -3.53125 -1.359375q-1.28125 -1.375 -1.28125 -3.75q0 -2.40625 1.1875 -3.828125q1.203125 -1.4375 3.234375 -1.4375q1.875 0 3.0 1.21875q1.125 1.21875 1.125 3.296875l0 0.984375l-6.859375 0q0.046875 1.703125 0.859375 2.59375q0.828125 0.875 2.328125 0.875q0.8125 0 1.53125 -0.140625q0.71875 -0.140625 1.6875 -0.546875l0 1.4375q-0.828125 0.359375 -1.5625 0.5q-0.734375 0.15625 -1.71875 0.15625zm-0.421875 -9.03125q-1.171875 0 -1.859375 0.765625q-0.671875 0.75 -0.796875 2.09375l5.09375 0q-0.03125 -1.40625 -0.65625 -2.125q-0.625 -0.734375 -1.78125 -0.734375zm10.693344 9.03125q-2.15625 0 -3.359375 -1.328125q-1.203125 -1.328125 -1.203125 -3.8125q0 -2.5 1.21875 -3.859375q1.21875 -1.375 3.46875 -1.375q0.71875 0 1.4375 0.15625q0.71875 0.140625 1.171875 0.390625l-0.5 1.359375q-1.265625 -0.46875 -2.15625 -0.46875q-1.515625 0 -2.234375 0.953125q-0.71875 0.953125 -0.71875 2.828125q0 1.8125 0.71875 2.78125q0.71875 0.953125 2.140625 0.953125q1.3125 0 2.59375 -0.578125l0 1.453125q-1.046875 0.546875 -2.578125 0.546875zm6.5015106 -10.1875l0 6.4375q0 1.21875 0.53125 1.8125q0.546875 0.578125 1.6875 0.578125q1.53125 0 2.234375 -0.859375q0.703125 -0.859375 0.703125 -2.765625l0 -5.203125l1.65625 0l0 10.0l-1.359375 0l-0.234375 -1.328125l-0.078125 0q-0.453125 0.734375 -1.28125 1.125q-0.8125 0.390625 -1.890625 0.390625q-1.796875 0 -2.71875 -0.859375q-0.921875 -0.875 -0.921875 -2.78125l0 -6.546875l1.671875 0zm11.610748 10.0l-1.640625 0l0 -14.171877l1.640625 0l0 14.171877zm9.356689 0l-0.328125 -1.421875l-0.0625 0q-0.75 0.9375 -1.5 1.28125q-0.734375 0.328125 -1.859375 0.328125q-1.484375 0 -2.328125 -0.765625q-0.828125 -0.78125 -0.828125 -2.203125q0 -3.046875 4.796875 -3.1875l1.6875 -0.0625l0 -0.59375q0 -1.140625 -0.484375 -1.671875q-0.484375 -0.546875 -1.578125 -0.546875q-0.796875 0 -1.5 0.234375q-0.703125 0.234375 -1.328125 0.53125l-0.5 -1.234375q0.765625 -0.390625 1.65625 -0.625q0.890625 -0.234375 1.765625 -0.234375q1.8125 0 2.6875 0.8125q0.890625 0.796875 0.890625 2.546875l0 6.8125l-1.1875 0zm-3.390625 -1.140625q1.375 0 2.15625 -0.734375q0.796875 -0.75 0.796875 -2.109375l0 -0.90625l-1.46875 0.0625q-1.71875 0.0625 -2.515625 0.546875q-0.78125 0.484375 -0.78125 1.515625q0 0.78125 0.46875 1.203125q0.484375 0.421875 1.34375 0.421875zm12.341812 -9.046875q0.671875 0 1.171875 0.109375l-0.203125 1.515625q-0.546875 -0.125 -1.078125 -0.125q-0.796875 0 -1.484375 0.4375q-0.671875 0.4375 -1.0625 1.203125q-0.375 0.765625 -0.375 1.703125l0 5.34375l-1.640625 0l0 -10.0l1.359375 0l0.171875 1.828125l0.078125 0q0.578125 -1.0 1.359375 -1.5q0.78125 -0.515625 1.703125 -0.515625zm19.740387 3.515625q0 3.1875 -1.625 5.03125q-1.609375 1.828125 -4.515625 1.828125q-2.9375 0 -4.546875 -1.796875q-1.609375 -1.8125 -1.609375 -5.09375q0 -3.25 1.59375 -5.031252q1.609375 -1.796875 4.578125 -1.796875q2.90625 0 4.515625 1.828125q1.609375 1.8125019 1.609375 5.031252zm-10.53125 0q0 2.640625 1.109375 4.03125q1.125 1.375 3.28125 1.375q2.140625 0 3.25 -1.359375q1.109375 -1.375 1.109375 -4.046875q0 -2.671875 -1.109375 -4.015627q-1.09375 -1.359375 -3.234375 -1.359375q-2.171875 0 -3.296875 1.375q-1.109375 1.3593769 -1.109375 4.000002zm20.066086 6.671875l0 -6.390625q0 -1.21875 -0.546875 -1.8125q-0.546875 -0.609375 -1.703125 -0.609375q-1.53125 0 -2.234375 0.859375q-0.703125 0.84375 -0.703125 2.765625l0 5.1875l-1.640625 0l0 -10.0l1.328125 0l0.25 1.359375l0.09375 0q0.453125 -0.734375 1.296875 -1.140625q0.84375 -0.40625 1.84375 -0.40625q1.84375 0 2.734375 0.890625q0.890625 0.890625 0.890625 2.78125l0 6.515625l-1.609375 0zm8.720131 0.1875q-2.15625 0 -3.359375 -1.328125q-1.203125 -1.328125 -1.203125 -3.8125q0 -2.5 1.21875 -3.859375q1.21875 -1.375 3.46875 -1.375q0.71875 0 1.4375 0.15625q0.71875 0.140625 1.171875 0.390625l-0.5 1.359375q-1.265625 -0.46875 -2.15625 -0.46875q-1.515625 0 -2.234375 0.953125q-0.71875 0.953125 -0.71875 2.828125q0 1.8125 0.71875 2.78125q0.71875 0.953125 2.140625 0.953125q1.3125 0 2.59375 -0.578125l0 1.453125q-1.046875 0.546875 -2.578125 0.546875zm13.64212 -5.203125q0 2.453125 -1.25 3.828125q-1.234375 1.375 -3.421875 1.375q-1.359375 0 -2.40625 -0.625q-1.046875 -0.640625 -1.609375 -1.828125q-0.5625 -1.1875 -0.5625 -2.75q0 -2.4375 1.21875 -3.796875q1.21875 -1.375 3.421875 -1.375q2.109375 0 3.359375 1.390625q1.25 1.390625 1.25 3.78125zm-7.5625 0q0 1.875 0.734375 2.859375q0.75 0.984375 2.203125 0.984375q1.4375 0 2.171875 -0.984375q0.75 -0.984375 0.75 -2.859375q0 -1.890625 -0.75 -2.84375q-0.75 -0.953125 -2.203125 -0.953125q-2.90625 0 -2.90625 3.796875zm11.786682 5.015625l-1.640625 0l0 -14.171877l1.640625 0l0 14.171877zm11.872314 -5.015625q0 2.453125 -1.25 3.828125q-1.234375 1.375 -3.421875 1.375q-1.359375 0 -2.40625 -0.625q-1.046875 -0.640625 -1.609375 -1.828125q-0.5625 -1.1875 -0.5625 -2.75q0 -2.4375 1.21875 -3.796875q1.21875 -1.375 3.421875 -1.375q2.109375 0 3.359375 1.390625q1.25 1.390625 1.25 3.78125zm-7.5625 0q0 1.875 0.734375 2.859375q0.75 0.984375 2.203125 0.984375q1.4375 0 2.171875 -0.984375q0.75 -0.984375 0.75 -2.859375q0 -1.890625 -0.75 -2.84375q-0.75 -0.953125 -2.203125 -0.953125q-2.90625 0 -2.90625 3.796875zm13.958527 3.859375q1.515625 0 2.203125 -0.8125q0.6875 -0.8125 0.6875 -2.625l0 -0.390625q0 -2.0 -0.703125 -2.90625q-0.6875 -0.921875 -2.21875 -0.921875q-1.265625 0 -1.953125 1.0q-0.6875 1.0 -0.6875 2.84375q0 1.859375 0.671875 2.84375q0.671875 0.96875 2.0 0.96875zm2.875 1.0625l0.046875 -1.234375l-0.0625 0q-1.015625 1.515625 -3.109375 1.515625q-1.9375 0 -3.03125 -1.34375q-1.078125 -1.359375 -1.078125 -3.828125q0 -2.40625 1.09375 -3.796875q1.09375 -1.40625 3.0 -1.40625q2.03125 0 3.140625 1.515625l0.09375 0l0.21875 -1.328125l1.3125 0l0 10.15625q0 2.15625 -1.09375 3.234375q-1.09375 1.09375 -3.390625 1.09375q-2.1875 0 -3.59375 -0.640625l0 -1.515625q1.453125 0.78125 3.6875 0.78125q1.28125 0 2.015625 -0.75q0.75 -0.734375 0.75 -2.0625l0 -0.390625zm3.2279663 -9.90625l1.765625 0l2.15625 5.6875q0.6875 1.859375 0.828125 2.734375l0.078125 0q0.078125 -0.34375 0.375 -1.265625q0.296875 -0.921875 0.5 -1.484375l2.03125 -5.671875l1.765625 0l-4.3125 11.390625q-0.625 1.65625 -1.5 2.375q-0.859375 0.71875 -2.140625 0.71875q-0.671875 0 -1.359375 -0.15625l0 -1.296875q0.46875 0.109375 1.09375 0.109375q0.796875 0 1.328125 -0.4375q0.546875 -0.4375 0.90625 -1.34375l0.515625 -1.328125l-4.03125 -10.03125z" fill-rule="nonzero"/><path fill="#8f1822" d="m40.459892 77.13732l-2.75 -7.078125l-9.0625 0l-2.71875 7.078125l-2.90625 0l8.921875 -22.937496l2.59375 0l8.90625 22.937496l-2.984375 0zm-3.609375 -9.625l-2.5625 -6.921871l-1.09375 -3.421875q-0.46875 1.875 -0.984375 3.421875l-2.59375 6.921871l7.234375 0zm9.734375 9.625l0 -22.843746l2.875 0l0 20.281246l9.984375 0l0 2.5625l-12.859375 0zm26.84375 0l-7.53125 -20.031246l-0.125 0q0.234375 2.5 0.234375 6.171875l0 13.859371l-2.65625 0l0 -22.843746l4.25 0l7.046875 18.718746l0.125 0l7.171875 -18.718746l4.21875 0l0 22.843746l-2.84375 0l0 -14.046871q0 -2.34375 0.21875 -5.953125l-0.125 0l-7.625 19.999996l-2.359375 0zm33.28125 0l-2.75 -7.078125l-9.0625 0l-2.71875 7.078125l-2.90625 0l8.921875 -22.937496l2.59375 0l8.90625 22.937496l-2.984375 0zm-3.609375 -9.625l-2.5625 -6.921871l-1.09375 -3.421875q-0.46875 1.875 -0.984375 3.421875l-2.59375 6.921871l7.234375 0zm27.843758 9.625l-3.3593826 0l-12.234375 -18.968746l-0.125 0l0.078125 1.265625q0.1875 2.84375 0.1875 4.937496l0 12.765625l-2.65625 0l0 -22.843746l3.328125 0l0.703125 1.109375l7.5 11.593746l3.9843826 6.203125l0.125 0q-0.03125 -0.375 -0.125 -2.671875q-0.09375 -2.3125 -0.09375 -3.34375l0 -12.890621l2.6875 0l0 22.843746zm20.53125 0l-2.75 -7.078125l-9.0625 0l-2.71875 7.078125l-2.90625 0l8.921875 -22.937496l2.59375 0l8.90625 22.937496l-2.984375 0zm-3.609375 -9.625l-2.5625 -6.921871l-1.09375 -3.421875q-0.46875 1.875 -0.984375 3.421875l-2.59375 6.921871l7.234375 0zm19.515625 -11.015621q-3.6875 0 -5.796875 2.46875q-2.109375 2.46875 -2.109375 6.749996q0 4.421875 2.046875 6.828125q2.046875 2.390625 5.828125 2.390625q2.4375 0 5.484375 -0.90625l0 2.5q-1.453125 0.53125 -2.796875 0.71875q-1.34375 0.203125 -3.09375 0.203125q-5.046875 0 -7.78125 -3.0625q-2.71875 -3.078125 -2.71875 -8.703125q0 -3.5312462 1.296875 -6.187496q1.3125 -2.65625 3.796875 -4.09375q2.5 -1.4375 5.875 -1.4375q3.625 0 6.3125 1.34375l-1.15625 2.4375q-2.734375 -1.25 -5.1875 -1.25z" fill-rule="nonzero"/></g></svg>